<mxfile host="app.diagrams.net" agent="Mozilla/5.0 (Windows NT 10.0; Win64; x64) AppleWebKit/537.36 (KHTML, like Gecko) Chrome/128.0.0.0 Safari/537.36" version="24.7.16">
  <diagram id="P6dQojHAQBrJRmWrth62" name="Page-1">
    <mxGraphModel dx="2396" dy="1153" grid="0" gridSize="10" guides="1" tooltips="1" connect="1" arrows="1" fold="1" page="0" pageScale="1" pageWidth="827" pageHeight="1169" math="0" shadow="0">
      <root>
        <mxCell id="0" />
        <mxCell id="1" parent="0" />
        <mxCell id="0EULkTotXLuiPx0UYuuQ-4" value="PropertyDTO" style="swimlane;fontStyle=1;align=center;verticalAlign=top;childLayout=stackLayout;horizontal=1;startSize=26;horizontalStack=0;resizeParent=1;resizeParentMax=0;resizeLast=0;collapsible=1;marginBottom=0;whiteSpace=wrap;html=1;" parent="1" vertex="1">
          <mxGeometry x="-97" y="40" width="160" height="144" as="geometry" />
        </mxCell>
        <mxCell id="0EULkTotXLuiPx0UYuuQ-5" value="+ ID: Int&lt;div&gt;+ PropertyName: String&lt;/div&gt;&lt;div&gt;+ Address1: String&lt;/div&gt;&lt;div&gt;+ Address2: String&lt;br&gt;&lt;/div&gt;&lt;div&gt;+ Address3: String&lt;br&gt;&lt;/div&gt;&lt;div&gt;+ Address4: String&lt;br&gt;&lt;/div&gt;&lt;div&gt;+ Postcode: String&lt;br&gt;&lt;/div&gt;" style="text;strokeColor=none;fillColor=none;align=left;verticalAlign=top;spacingLeft=4;spacingRight=4;overflow=hidden;rotatable=0;points=[[0,0.5],[1,0.5]];portConstraint=eastwest;whiteSpace=wrap;html=1;" parent="0EULkTotXLuiPx0UYuuQ-4" vertex="1">
          <mxGeometry y="26" width="160" height="110" as="geometry" />
        </mxCell>
        <mxCell id="0EULkTotXLuiPx0UYuuQ-6" value="" style="line;strokeWidth=1;fillColor=none;align=left;verticalAlign=middle;spacingTop=-1;spacingLeft=3;spacingRight=3;rotatable=0;labelPosition=right;points=[];portConstraint=eastwest;strokeColor=inherit;" parent="0EULkTotXLuiPx0UYuuQ-4" vertex="1">
          <mxGeometry y="136" width="160" height="8" as="geometry" />
        </mxCell>
        <mxCell id="0EULkTotXLuiPx0UYuuQ-8" value="RequestDTO" style="swimlane;fontStyle=1;align=center;verticalAlign=top;childLayout=stackLayout;horizontal=1;startSize=26;horizontalStack=0;resizeParent=1;resizeParentMax=0;resizeLast=0;collapsible=1;marginBottom=0;whiteSpace=wrap;html=1;" parent="1" vertex="1">
          <mxGeometry x="125" y="142" width="160" height="109" as="geometry" />
        </mxCell>
        <mxCell id="0EULkTotXLuiPx0UYuuQ-9" value="+ MaximumBid: Double&lt;div&gt;+ CurrentBid: Double&lt;br&gt;&lt;/div&gt;" style="text;strokeColor=none;fillColor=none;align=left;verticalAlign=top;spacingLeft=4;spacingRight=4;overflow=hidden;rotatable=0;points=[[0,0.5],[1,0.5]];portConstraint=eastwest;whiteSpace=wrap;html=1;" parent="0EULkTotXLuiPx0UYuuQ-8" vertex="1">
          <mxGeometry y="26" width="160" height="49" as="geometry" />
        </mxCell>
        <mxCell id="0EULkTotXLuiPx0UYuuQ-10" value="" style="line;strokeWidth=1;fillColor=none;align=left;verticalAlign=middle;spacingTop=-1;spacingLeft=3;spacingRight=3;rotatable=0;labelPosition=right;points=[];portConstraint=eastwest;strokeColor=inherit;" parent="0EULkTotXLuiPx0UYuuQ-8" vertex="1">
          <mxGeometry y="75" width="160" height="8" as="geometry" />
        </mxCell>
        <mxCell id="0EULkTotXLuiPx0UYuuQ-11" value="+ method(type): type" style="text;strokeColor=none;fillColor=none;align=left;verticalAlign=top;spacingLeft=4;spacingRight=4;overflow=hidden;rotatable=0;points=[[0,0.5],[1,0.5]];portConstraint=eastwest;whiteSpace=wrap;html=1;" parent="0EULkTotXLuiPx0UYuuQ-8" vertex="1">
          <mxGeometry y="83" width="160" height="26" as="geometry" />
        </mxCell>
        <mxCell id="0EULkTotXLuiPx0UYuuQ-12" value="QuoteDTO" style="swimlane;fontStyle=1;align=center;verticalAlign=top;childLayout=stackLayout;horizontal=1;startSize=21;horizontalStack=0;resizeParent=1;resizeParentMax=0;resizeLast=0;collapsible=1;marginBottom=0;whiteSpace=wrap;html=1;" parent="1" vertex="1">
          <mxGeometry x="352" y="170" width="160" height="81" as="geometry" />
        </mxCell>
        <mxCell id="0EULkTotXLuiPx0UYuuQ-13" value="+ Bid: Double" style="text;strokeColor=none;fillColor=none;align=left;verticalAlign=top;spacingLeft=4;spacingRight=4;overflow=hidden;rotatable=0;points=[[0,0.5],[1,0.5]];portConstraint=eastwest;whiteSpace=wrap;html=1;" parent="0EULkTotXLuiPx0UYuuQ-12" vertex="1">
          <mxGeometry y="21" width="160" height="26" as="geometry" />
        </mxCell>
        <mxCell id="0EULkTotXLuiPx0UYuuQ-14" value="" style="line;strokeWidth=1;fillColor=none;align=left;verticalAlign=middle;spacingTop=-1;spacingLeft=3;spacingRight=3;rotatable=0;labelPosition=right;points=[];portConstraint=eastwest;strokeColor=inherit;" parent="0EULkTotXLuiPx0UYuuQ-12" vertex="1">
          <mxGeometry y="47" width="160" height="8" as="geometry" />
        </mxCell>
        <mxCell id="0EULkTotXLuiPx0UYuuQ-15" value="+ method(type): type" style="text;strokeColor=none;fillColor=none;align=left;verticalAlign=top;spacingLeft=4;spacingRight=4;overflow=hidden;rotatable=0;points=[[0,0.5],[1,0.5]];portConstraint=eastwest;whiteSpace=wrap;html=1;" parent="0EULkTotXLuiPx0UYuuQ-12" vertex="1">
          <mxGeometry y="55" width="160" height="26" as="geometry" />
        </mxCell>
        <mxCell id="0EULkTotXLuiPx0UYuuQ-20" value="PropertyManagerDTO" style="swimlane;fontStyle=1;align=center;verticalAlign=top;childLayout=stackLayout;horizontal=1;startSize=26;horizontalStack=0;resizeParent=1;resizeParentMax=0;resizeLast=0;collapsible=1;marginBottom=0;whiteSpace=wrap;html=1;" parent="1" vertex="1">
          <mxGeometry x="545" y="65" width="160" height="86" as="geometry" />
        </mxCell>
        <mxCell id="0EULkTotXLuiPx0UYuuQ-21" value="+ field: type" style="text;strokeColor=none;fillColor=none;align=left;verticalAlign=top;spacingLeft=4;spacingRight=4;overflow=hidden;rotatable=0;points=[[0,0.5],[1,0.5]];portConstraint=eastwest;whiteSpace=wrap;html=1;" parent="0EULkTotXLuiPx0UYuuQ-20" vertex="1">
          <mxGeometry y="26" width="160" height="26" as="geometry" />
        </mxCell>
        <mxCell id="0EULkTotXLuiPx0UYuuQ-22" value="" style="line;strokeWidth=1;fillColor=none;align=left;verticalAlign=middle;spacingTop=-1;spacingLeft=3;spacingRight=3;rotatable=0;labelPosition=right;points=[];portConstraint=eastwest;strokeColor=inherit;" parent="0EULkTotXLuiPx0UYuuQ-20" vertex="1">
          <mxGeometry y="52" width="160" height="8" as="geometry" />
        </mxCell>
        <mxCell id="0EULkTotXLuiPx0UYuuQ-23" value="+ method(type): type" style="text;strokeColor=none;fillColor=none;align=left;verticalAlign=top;spacingLeft=4;spacingRight=4;overflow=hidden;rotatable=0;points=[[0,0.5],[1,0.5]];portConstraint=eastwest;whiteSpace=wrap;html=1;" parent="0EULkTotXLuiPx0UYuuQ-20" vertex="1">
          <mxGeometry y="60" width="160" height="26" as="geometry" />
        </mxCell>
        <mxCell id="0EULkTotXLuiPx0UYuuQ-24" value="ContractorDTO" style="swimlane;fontStyle=1;align=center;verticalAlign=top;childLayout=stackLayout;horizontal=1;startSize=26;horizontalStack=0;resizeParent=1;resizeParentMax=0;resizeLast=0;collapsible=1;marginBottom=0;whiteSpace=wrap;html=1;" parent="1" vertex="1">
          <mxGeometry x="746" y="63" width="160" height="86" as="geometry" />
        </mxCell>
        <mxCell id="0EULkTotXLuiPx0UYuuQ-25" value="+ field: type" style="text;strokeColor=none;fillColor=none;align=left;verticalAlign=top;spacingLeft=4;spacingRight=4;overflow=hidden;rotatable=0;points=[[0,0.5],[1,0.5]];portConstraint=eastwest;whiteSpace=wrap;html=1;" parent="0EULkTotXLuiPx0UYuuQ-24" vertex="1">
          <mxGeometry y="26" width="160" height="26" as="geometry" />
        </mxCell>
        <mxCell id="0EULkTotXLuiPx0UYuuQ-26" value="" style="line;strokeWidth=1;fillColor=none;align=left;verticalAlign=middle;spacingTop=-1;spacingLeft=3;spacingRight=3;rotatable=0;labelPosition=right;points=[];portConstraint=eastwest;strokeColor=inherit;" parent="0EULkTotXLuiPx0UYuuQ-24" vertex="1">
          <mxGeometry y="52" width="160" height="8" as="geometry" />
        </mxCell>
        <mxCell id="0EULkTotXLuiPx0UYuuQ-27" value="+ method(type): type" style="text;strokeColor=none;fillColor=none;align=left;verticalAlign=top;spacingLeft=4;spacingRight=4;overflow=hidden;rotatable=0;points=[[0,0.5],[1,0.5]];portConstraint=eastwest;whiteSpace=wrap;html=1;" parent="0EULkTotXLuiPx0UYuuQ-24" vertex="1">
          <mxGeometry y="60" width="160" height="26" as="geometry" />
        </mxCell>
        <mxCell id="0EULkTotXLuiPx0UYuuQ-28" value="SurveyorDTO" style="swimlane;fontStyle=1;align=center;verticalAlign=top;childLayout=stackLayout;horizontal=1;startSize=26;horizontalStack=0;resizeParent=1;resizeParentMax=0;resizeLast=0;collapsible=1;marginBottom=0;whiteSpace=wrap;html=1;" parent="1" vertex="1">
          <mxGeometry x="931" y="65" width="160" height="86" as="geometry" />
        </mxCell>
        <mxCell id="0EULkTotXLuiPx0UYuuQ-29" value="+ field: type" style="text;strokeColor=none;fillColor=none;align=left;verticalAlign=top;spacingLeft=4;spacingRight=4;overflow=hidden;rotatable=0;points=[[0,0.5],[1,0.5]];portConstraint=eastwest;whiteSpace=wrap;html=1;" parent="0EULkTotXLuiPx0UYuuQ-28" vertex="1">
          <mxGeometry y="26" width="160" height="26" as="geometry" />
        </mxCell>
        <mxCell id="0EULkTotXLuiPx0UYuuQ-30" value="" style="line;strokeWidth=1;fillColor=none;align=left;verticalAlign=middle;spacingTop=-1;spacingLeft=3;spacingRight=3;rotatable=0;labelPosition=right;points=[];portConstraint=eastwest;strokeColor=inherit;" parent="0EULkTotXLuiPx0UYuuQ-28" vertex="1">
          <mxGeometry y="52" width="160" height="8" as="geometry" />
        </mxCell>
        <mxCell id="0EULkTotXLuiPx0UYuuQ-31" value="+ method(type): type" style="text;strokeColor=none;fillColor=none;align=left;verticalAlign=top;spacingLeft=4;spacingRight=4;overflow=hidden;rotatable=0;points=[[0,0.5],[1,0.5]];portConstraint=eastwest;whiteSpace=wrap;html=1;" parent="0EULkTotXLuiPx0UYuuQ-28" vertex="1">
          <mxGeometry y="60" width="160" height="26" as="geometry" />
        </mxCell>
        <mxCell id="0EULkTotXLuiPx0UYuuQ-32" value="UserAbstract" style="swimlane;fontStyle=1;align=center;verticalAlign=top;childLayout=stackLayout;horizontal=1;startSize=26;horizontalStack=0;resizeParent=1;resizeParentMax=0;resizeLast=0;collapsible=1;marginBottom=0;whiteSpace=wrap;html=1;" parent="1" vertex="1">
          <mxGeometry x="678" y="-157" width="246" height="86" as="geometry" />
        </mxCell>
        <mxCell id="0EULkTotXLuiPx0UYuuQ-33" value="+ field: type" style="text;strokeColor=none;fillColor=none;align=left;verticalAlign=top;spacingLeft=4;spacingRight=4;overflow=hidden;rotatable=0;points=[[0,0.5],[1,0.5]];portConstraint=eastwest;whiteSpace=wrap;html=1;" parent="0EULkTotXLuiPx0UYuuQ-32" vertex="1">
          <mxGeometry y="26" width="246" height="26" as="geometry" />
        </mxCell>
        <mxCell id="0EULkTotXLuiPx0UYuuQ-34" value="" style="line;strokeWidth=1;fillColor=none;align=left;verticalAlign=middle;spacingTop=-1;spacingLeft=3;spacingRight=3;rotatable=0;labelPosition=right;points=[];portConstraint=eastwest;strokeColor=inherit;" parent="0EULkTotXLuiPx0UYuuQ-32" vertex="1">
          <mxGeometry y="52" width="246" height="8" as="geometry" />
        </mxCell>
        <mxCell id="0EULkTotXLuiPx0UYuuQ-35" value="+ method(type): type" style="text;strokeColor=none;fillColor=none;align=left;verticalAlign=top;spacingLeft=4;spacingRight=4;overflow=hidden;rotatable=0;points=[[0,0.5],[1,0.5]];portConstraint=eastwest;whiteSpace=wrap;html=1;" parent="0EULkTotXLuiPx0UYuuQ-32" vertex="1">
          <mxGeometry y="60" width="246" height="26" as="geometry" />
        </mxCell>
        <mxCell id="0EULkTotXLuiPx0UYuuQ-36" value="NoteDTO" style="swimlane;fontStyle=1;align=center;verticalAlign=top;childLayout=stackLayout;horizontal=1;startSize=26;horizontalStack=0;resizeParent=1;resizeParentMax=0;resizeLast=0;collapsible=1;marginBottom=0;whiteSpace=wrap;html=1;" parent="1" vertex="1">
          <mxGeometry x="214" y="307" width="160" height="86" as="geometry" />
        </mxCell>
        <mxCell id="0EULkTotXLuiPx0UYuuQ-37" value="+ field: type" style="text;strokeColor=none;fillColor=none;align=left;verticalAlign=top;spacingLeft=4;spacingRight=4;overflow=hidden;rotatable=0;points=[[0,0.5],[1,0.5]];portConstraint=eastwest;whiteSpace=wrap;html=1;" parent="0EULkTotXLuiPx0UYuuQ-36" vertex="1">
          <mxGeometry y="26" width="160" height="26" as="geometry" />
        </mxCell>
        <mxCell id="0EULkTotXLuiPx0UYuuQ-38" value="" style="line;strokeWidth=1;fillColor=none;align=left;verticalAlign=middle;spacingTop=-1;spacingLeft=3;spacingRight=3;rotatable=0;labelPosition=right;points=[];portConstraint=eastwest;strokeColor=inherit;" parent="0EULkTotXLuiPx0UYuuQ-36" vertex="1">
          <mxGeometry y="52" width="160" height="8" as="geometry" />
        </mxCell>
        <mxCell id="0EULkTotXLuiPx0UYuuQ-39" value="+ method(type): type" style="text;strokeColor=none;fillColor=none;align=left;verticalAlign=top;spacingLeft=4;spacingRight=4;overflow=hidden;rotatable=0;points=[[0,0.5],[1,0.5]];portConstraint=eastwest;whiteSpace=wrap;html=1;" parent="0EULkTotXLuiPx0UYuuQ-36" vertex="1">
          <mxGeometry y="60" width="160" height="26" as="geometry" />
        </mxCell>
        <mxCell id="0EULkTotXLuiPx0UYuuQ-40" value="ContactInfoDTO" style="swimlane;fontStyle=1;align=center;verticalAlign=top;childLayout=stackLayout;horizontal=1;startSize=26;horizontalStack=0;resizeParent=1;resizeParentMax=0;resizeLast=0;collapsible=1;marginBottom=0;whiteSpace=wrap;html=1;" parent="1" vertex="1">
          <mxGeometry x="931" y="245" width="160" height="86" as="geometry" />
        </mxCell>
        <mxCell id="0EULkTotXLuiPx0UYuuQ-41" value="+ field: type" style="text;strokeColor=none;fillColor=none;align=left;verticalAlign=top;spacingLeft=4;spacingRight=4;overflow=hidden;rotatable=0;points=[[0,0.5],[1,0.5]];portConstraint=eastwest;whiteSpace=wrap;html=1;" parent="0EULkTotXLuiPx0UYuuQ-40" vertex="1">
          <mxGeometry y="26" width="160" height="26" as="geometry" />
        </mxCell>
        <mxCell id="0EULkTotXLuiPx0UYuuQ-42" value="" style="line;strokeWidth=1;fillColor=none;align=left;verticalAlign=middle;spacingTop=-1;spacingLeft=3;spacingRight=3;rotatable=0;labelPosition=right;points=[];portConstraint=eastwest;strokeColor=inherit;" parent="0EULkTotXLuiPx0UYuuQ-40" vertex="1">
          <mxGeometry y="52" width="160" height="8" as="geometry" />
        </mxCell>
        <mxCell id="0EULkTotXLuiPx0UYuuQ-43" value="+ method(type): type" style="text;strokeColor=none;fillColor=none;align=left;verticalAlign=top;spacingLeft=4;spacingRight=4;overflow=hidden;rotatable=0;points=[[0,0.5],[1,0.5]];portConstraint=eastwest;whiteSpace=wrap;html=1;" parent="0EULkTotXLuiPx0UYuuQ-40" vertex="1">
          <mxGeometry y="60" width="160" height="26" as="geometry" />
        </mxCell>
        <mxCell id="0EULkTotXLuiPx0UYuuQ-44" value="SurveyDTO" style="swimlane;fontStyle=1;align=center;verticalAlign=top;childLayout=stackLayout;horizontal=1;startSize=26;horizontalStack=0;resizeParent=1;resizeParentMax=0;resizeLast=0;collapsible=1;marginBottom=0;whiteSpace=wrap;html=1;" parent="1" vertex="1">
          <mxGeometry x="545" y="233" width="160" height="86" as="geometry" />
        </mxCell>
        <mxCell id="0EULkTotXLuiPx0UYuuQ-45" value="+ field: type" style="text;strokeColor=none;fillColor=none;align=left;verticalAlign=top;spacingLeft=4;spacingRight=4;overflow=hidden;rotatable=0;points=[[0,0.5],[1,0.5]];portConstraint=eastwest;whiteSpace=wrap;html=1;" parent="0EULkTotXLuiPx0UYuuQ-44" vertex="1">
          <mxGeometry y="26" width="160" height="26" as="geometry" />
        </mxCell>
        <mxCell id="0EULkTotXLuiPx0UYuuQ-46" value="" style="line;strokeWidth=1;fillColor=none;align=left;verticalAlign=middle;spacingTop=-1;spacingLeft=3;spacingRight=3;rotatable=0;labelPosition=right;points=[];portConstraint=eastwest;strokeColor=inherit;" parent="0EULkTotXLuiPx0UYuuQ-44" vertex="1">
          <mxGeometry y="52" width="160" height="8" as="geometry" />
        </mxCell>
        <mxCell id="0EULkTotXLuiPx0UYuuQ-47" value="+ method(type): type" style="text;strokeColor=none;fillColor=none;align=left;verticalAlign=top;spacingLeft=4;spacingRight=4;overflow=hidden;rotatable=0;points=[[0,0.5],[1,0.5]];portConstraint=eastwest;whiteSpace=wrap;html=1;" parent="0EULkTotXLuiPx0UYuuQ-44" vertex="1">
          <mxGeometry y="60" width="160" height="26" as="geometry" />
        </mxCell>
        <mxCell id="0EULkTotXLuiPx0UYuuQ-48" value="HourlyRateDTO" style="swimlane;fontStyle=1;align=center;verticalAlign=top;childLayout=stackLayout;horizontal=1;startSize=26;horizontalStack=0;resizeParent=1;resizeParentMax=0;resizeLast=0;collapsible=1;marginBottom=0;whiteSpace=wrap;html=1;" parent="1" vertex="1">
          <mxGeometry x="931" y="469" width="160" height="86" as="geometry" />
        </mxCell>
        <mxCell id="0EULkTotXLuiPx0UYuuQ-49" value="+ field: type" style="text;strokeColor=none;fillColor=none;align=left;verticalAlign=top;spacingLeft=4;spacingRight=4;overflow=hidden;rotatable=0;points=[[0,0.5],[1,0.5]];portConstraint=eastwest;whiteSpace=wrap;html=1;" parent="0EULkTotXLuiPx0UYuuQ-48" vertex="1">
          <mxGeometry y="26" width="160" height="26" as="geometry" />
        </mxCell>
        <mxCell id="0EULkTotXLuiPx0UYuuQ-50" value="" style="line;strokeWidth=1;fillColor=none;align=left;verticalAlign=middle;spacingTop=-1;spacingLeft=3;spacingRight=3;rotatable=0;labelPosition=right;points=[];portConstraint=eastwest;strokeColor=inherit;" parent="0EULkTotXLuiPx0UYuuQ-48" vertex="1">
          <mxGeometry y="52" width="160" height="8" as="geometry" />
        </mxCell>
        <mxCell id="0EULkTotXLuiPx0UYuuQ-51" value="+ method(type): type" style="text;strokeColor=none;fillColor=none;align=left;verticalAlign=top;spacingLeft=4;spacingRight=4;overflow=hidden;rotatable=0;points=[[0,0.5],[1,0.5]];portConstraint=eastwest;whiteSpace=wrap;html=1;" parent="0EULkTotXLuiPx0UYuuQ-48" vertex="1">
          <mxGeometry y="60" width="160" height="26" as="geometry" />
        </mxCell>
        <mxCell id="0EULkTotXLuiPx0UYuuQ-72" value="PropertyService" style="swimlane;fontStyle=1;align=center;verticalAlign=top;childLayout=stackLayout;horizontal=1;startSize=26;horizontalStack=0;resizeParent=1;resizeParentMax=0;resizeLast=0;collapsible=1;marginBottom=0;whiteSpace=wrap;html=1;" parent="1" vertex="1">
          <mxGeometry x="-359" y="40" width="160" height="86" as="geometry" />
        </mxCell>
        <mxCell id="0EULkTotXLuiPx0UYuuQ-73" value="- Properties: PropertyDTO" style="text;strokeColor=none;fillColor=none;align=left;verticalAlign=top;spacingLeft=4;spacingRight=4;overflow=hidden;rotatable=0;points=[[0,0.5],[1,0.5]];portConstraint=eastwest;whiteSpace=wrap;html=1;" parent="0EULkTotXLuiPx0UYuuQ-72" vertex="1">
          <mxGeometry y="26" width="160" height="26" as="geometry" />
        </mxCell>
        <mxCell id="0EULkTotXLuiPx0UYuuQ-74" value="" style="line;strokeWidth=1;fillColor=none;align=left;verticalAlign=middle;spacingTop=-1;spacingLeft=3;spacingRight=3;rotatable=0;labelPosition=right;points=[];portConstraint=eastwest;strokeColor=inherit;" parent="0EULkTotXLuiPx0UYuuQ-72" vertex="1">
          <mxGeometry y="52" width="160" height="8" as="geometry" />
        </mxCell>
        <mxCell id="0EULkTotXLuiPx0UYuuQ-75" value="+ method(type): type" style="text;strokeColor=none;fillColor=none;align=left;verticalAlign=top;spacingLeft=4;spacingRight=4;overflow=hidden;rotatable=0;points=[[0,0.5],[1,0.5]];portConstraint=eastwest;whiteSpace=wrap;html=1;" parent="0EULkTotXLuiPx0UYuuQ-72" vertex="1">
          <mxGeometry y="60" width="160" height="26" as="geometry" />
        </mxCell>
        <mxCell id="0EULkTotXLuiPx0UYuuQ-76" value="JobAbstract" style="swimlane;fontStyle=1;align=center;verticalAlign=top;childLayout=stackLayout;horizontal=1;startSize=26;horizontalStack=0;resizeParent=1;resizeParentMax=0;resizeLast=0;collapsible=1;marginBottom=0;whiteSpace=wrap;html=1;" parent="1" vertex="1">
          <mxGeometry x="199" y="-242" width="190" height="276" as="geometry" />
        </mxCell>
        <mxCell id="0EULkTotXLuiPx0UYuuQ-77" value="+ DetailsOfRepair: String&lt;div&gt;+ ContactName: String&lt;br&gt;&lt;/div&gt;&lt;div&gt;+ Telephone: String&lt;br&gt;&lt;/div&gt;&lt;div&gt;+ Email: String&lt;br&gt;&lt;/div&gt;&lt;div&gt;+ DetailsOfRepair: String&lt;br&gt;&lt;/div&gt;&lt;div&gt;+ Compliance: String&lt;br&gt;&lt;/div&gt;&lt;div&gt;+ JobType: String&lt;br&gt;&lt;/div&gt;&lt;div&gt;+ Deadline: Int&lt;/div&gt;&lt;div&gt;+ Property: PropertyDTO&lt;/div&gt;&lt;div&gt;+ PropertyManager: PropertyManagerDTO&lt;/div&gt;&lt;div&gt;+ Contractor: ContractorDTO&lt;/div&gt;&lt;div&gt;+ Surveyor: SurveyorDTO&lt;/div&gt;" style="text;strokeColor=none;fillColor=none;align=left;verticalAlign=top;spacingLeft=4;spacingRight=4;overflow=hidden;rotatable=0;points=[[0,0.5],[1,0.5]];portConstraint=eastwest;whiteSpace=wrap;html=1;" parent="0EULkTotXLuiPx0UYuuQ-76" vertex="1">
          <mxGeometry y="26" width="190" height="242" as="geometry" />
        </mxCell>
        <mxCell id="0EULkTotXLuiPx0UYuuQ-78" value="" style="line;strokeWidth=1;fillColor=none;align=left;verticalAlign=middle;spacingTop=-1;spacingLeft=3;spacingRight=3;rotatable=0;labelPosition=right;points=[];portConstraint=eastwest;strokeColor=inherit;" parent="0EULkTotXLuiPx0UYuuQ-76" vertex="1">
          <mxGeometry y="268" width="190" height="8" as="geometry" />
        </mxCell>
        <mxCell id="0EULkTotXLuiPx0UYuuQ-80" value="&amp;lt;&amp;lt;Interface&amp;gt;&amp;gt; IAddProperty" style="swimlane;fontStyle=1;align=center;verticalAlign=top;childLayout=stackLayout;horizontal=1;startSize=26;horizontalStack=0;resizeParent=1;resizeParentMax=0;resizeLast=0;collapsible=1;marginBottom=0;whiteSpace=wrap;html=1;" parent="1" vertex="1">
          <mxGeometry x="-359" y="207" width="160" height="86" as="geometry" />
        </mxCell>
        <mxCell id="0EULkTotXLuiPx0UYuuQ-81" value="+ field: type" style="text;strokeColor=none;fillColor=none;align=left;verticalAlign=top;spacingLeft=4;spacingRight=4;overflow=hidden;rotatable=0;points=[[0,0.5],[1,0.5]];portConstraint=eastwest;whiteSpace=wrap;html=1;" parent="0EULkTotXLuiPx0UYuuQ-80" vertex="1">
          <mxGeometry y="26" width="160" height="26" as="geometry" />
        </mxCell>
        <mxCell id="0EULkTotXLuiPx0UYuuQ-82" value="" style="line;strokeWidth=1;fillColor=none;align=left;verticalAlign=middle;spacingTop=-1;spacingLeft=3;spacingRight=3;rotatable=0;labelPosition=right;points=[];portConstraint=eastwest;strokeColor=inherit;" parent="0EULkTotXLuiPx0UYuuQ-80" vertex="1">
          <mxGeometry y="52" width="160" height="8" as="geometry" />
        </mxCell>
        <mxCell id="0EULkTotXLuiPx0UYuuQ-83" value="+ method(type): type" style="text;strokeColor=none;fillColor=none;align=left;verticalAlign=top;spacingLeft=4;spacingRight=4;overflow=hidden;rotatable=0;points=[[0,0.5],[1,0.5]];portConstraint=eastwest;whiteSpace=wrap;html=1;" parent="0EULkTotXLuiPx0UYuuQ-80" vertex="1">
          <mxGeometry y="60" width="160" height="26" as="geometry" />
        </mxCell>
        <mxCell id="0EULkTotXLuiPx0UYuuQ-88" value="&lt;div&gt;&amp;lt;&amp;lt;Interface&amp;gt;&amp;gt;&amp;nbsp;&lt;span style=&quot;background-color: initial;&quot;&gt;IFilterProperty&lt;/span&gt;&lt;/div&gt;" style="swimlane;fontStyle=1;align=center;verticalAlign=top;childLayout=stackLayout;horizontal=1;startSize=26;horizontalStack=0;resizeParent=1;resizeParentMax=0;resizeLast=0;collapsible=1;marginBottom=0;whiteSpace=wrap;html=1;" parent="1" vertex="1">
          <mxGeometry x="-647" y="40" width="177" height="86" as="geometry">
            <mxRectangle x="-553" y="40" width="110" height="41" as="alternateBounds" />
          </mxGeometry>
        </mxCell>
        <mxCell id="0EULkTotXLuiPx0UYuuQ-89" value="+ field: type" style="text;strokeColor=none;fillColor=none;align=left;verticalAlign=top;spacingLeft=4;spacingRight=4;overflow=hidden;rotatable=0;points=[[0,0.5],[1,0.5]];portConstraint=eastwest;whiteSpace=wrap;html=1;" parent="0EULkTotXLuiPx0UYuuQ-88" vertex="1">
          <mxGeometry y="26" width="177" height="26" as="geometry" />
        </mxCell>
        <mxCell id="0EULkTotXLuiPx0UYuuQ-90" value="" style="line;strokeWidth=1;fillColor=none;align=left;verticalAlign=middle;spacingTop=-1;spacingLeft=3;spacingRight=3;rotatable=0;labelPosition=right;points=[];portConstraint=eastwest;strokeColor=inherit;" parent="0EULkTotXLuiPx0UYuuQ-88" vertex="1">
          <mxGeometry y="52" width="177" height="8" as="geometry" />
        </mxCell>
        <mxCell id="0EULkTotXLuiPx0UYuuQ-91" value="+ method(type): type" style="text;strokeColor=none;fillColor=none;align=left;verticalAlign=top;spacingLeft=4;spacingRight=4;overflow=hidden;rotatable=0;points=[[0,0.5],[1,0.5]];portConstraint=eastwest;whiteSpace=wrap;html=1;" parent="0EULkTotXLuiPx0UYuuQ-88" vertex="1">
          <mxGeometry y="60" width="177" height="26" as="geometry" />
        </mxCell>
        <mxCell id="0EULkTotXLuiPx0UYuuQ-92" value="RequestService" style="swimlane;fontStyle=1;align=center;verticalAlign=top;childLayout=stackLayout;horizontal=1;startSize=26;horizontalStack=0;resizeParent=1;resizeParentMax=0;resizeLast=0;collapsible=1;marginBottom=0;whiteSpace=wrap;html=1;" parent="1" vertex="1">
          <mxGeometry x="113" y="464" width="160" height="86" as="geometry" />
        </mxCell>
        <mxCell id="0EULkTotXLuiPx0UYuuQ-93" value="- Requests: RequestDTO" style="text;strokeColor=none;fillColor=none;align=left;verticalAlign=top;spacingLeft=4;spacingRight=4;overflow=hidden;rotatable=0;points=[[0,0.5],[1,0.5]];portConstraint=eastwest;whiteSpace=wrap;html=1;" parent="0EULkTotXLuiPx0UYuuQ-92" vertex="1">
          <mxGeometry y="26" width="160" height="26" as="geometry" />
        </mxCell>
        <mxCell id="0EULkTotXLuiPx0UYuuQ-94" value="" style="line;strokeWidth=1;fillColor=none;align=left;verticalAlign=middle;spacingTop=-1;spacingLeft=3;spacingRight=3;rotatable=0;labelPosition=right;points=[];portConstraint=eastwest;strokeColor=inherit;" parent="0EULkTotXLuiPx0UYuuQ-92" vertex="1">
          <mxGeometry y="52" width="160" height="8" as="geometry" />
        </mxCell>
        <mxCell id="0EULkTotXLuiPx0UYuuQ-95" value="+ method(type): type" style="text;strokeColor=none;fillColor=none;align=left;verticalAlign=top;spacingLeft=4;spacingRight=4;overflow=hidden;rotatable=0;points=[[0,0.5],[1,0.5]];portConstraint=eastwest;whiteSpace=wrap;html=1;" parent="0EULkTotXLuiPx0UYuuQ-92" vertex="1">
          <mxGeometry y="60" width="160" height="26" as="geometry" />
        </mxCell>
        <mxCell id="0EULkTotXLuiPx0UYuuQ-108" value="QuoteService" style="swimlane;fontStyle=1;align=center;verticalAlign=top;childLayout=stackLayout;horizontal=1;startSize=26;horizontalStack=0;resizeParent=1;resizeParentMax=0;resizeLast=0;collapsible=1;marginBottom=0;whiteSpace=wrap;html=1;" parent="1" vertex="1">
          <mxGeometry x="316" y="464" width="160" height="86" as="geometry" />
        </mxCell>
        <mxCell id="0EULkTotXLuiPx0UYuuQ-109" value="- Quotes: QuotesDTO" style="text;strokeColor=none;fillColor=none;align=left;verticalAlign=top;spacingLeft=4;spacingRight=4;overflow=hidden;rotatable=0;points=[[0,0.5],[1,0.5]];portConstraint=eastwest;whiteSpace=wrap;html=1;" parent="0EULkTotXLuiPx0UYuuQ-108" vertex="1">
          <mxGeometry y="26" width="160" height="26" as="geometry" />
        </mxCell>
        <mxCell id="0EULkTotXLuiPx0UYuuQ-110" value="" style="line;strokeWidth=1;fillColor=none;align=left;verticalAlign=middle;spacingTop=-1;spacingLeft=3;spacingRight=3;rotatable=0;labelPosition=right;points=[];portConstraint=eastwest;strokeColor=inherit;" parent="0EULkTotXLuiPx0UYuuQ-108" vertex="1">
          <mxGeometry y="52" width="160" height="8" as="geometry" />
        </mxCell>
        <mxCell id="0EULkTotXLuiPx0UYuuQ-111" value="+ method(type): type" style="text;strokeColor=none;fillColor=none;align=left;verticalAlign=top;spacingLeft=4;spacingRight=4;overflow=hidden;rotatable=0;points=[[0,0.5],[1,0.5]];portConstraint=eastwest;whiteSpace=wrap;html=1;" parent="0EULkTotXLuiPx0UYuuQ-108" vertex="1">
          <mxGeometry y="60" width="160" height="26" as="geometry" />
        </mxCell>
        <mxCell id="0EULkTotXLuiPx0UYuuQ-116" value="&amp;lt;&amp;lt;Interface&amp;gt;&amp;gt; IJobBuilder" style="swimlane;fontStyle=1;align=center;verticalAlign=top;childLayout=stackLayout;horizontal=1;startSize=26;horizontalStack=0;resizeParent=1;resizeParentMax=0;resizeLast=0;collapsible=1;marginBottom=0;whiteSpace=wrap;html=1;" parent="1" vertex="1">
          <mxGeometry x="316" y="737" width="160" height="86" as="geometry" />
        </mxCell>
        <mxCell id="0EULkTotXLuiPx0UYuuQ-117" value="+ field: type" style="text;strokeColor=none;fillColor=none;align=left;verticalAlign=top;spacingLeft=4;spacingRight=4;overflow=hidden;rotatable=0;points=[[0,0.5],[1,0.5]];portConstraint=eastwest;whiteSpace=wrap;html=1;" parent="0EULkTotXLuiPx0UYuuQ-116" vertex="1">
          <mxGeometry y="26" width="160" height="26" as="geometry" />
        </mxCell>
        <mxCell id="0EULkTotXLuiPx0UYuuQ-118" value="" style="line;strokeWidth=1;fillColor=none;align=left;verticalAlign=middle;spacingTop=-1;spacingLeft=3;spacingRight=3;rotatable=0;labelPosition=right;points=[];portConstraint=eastwest;strokeColor=inherit;" parent="0EULkTotXLuiPx0UYuuQ-116" vertex="1">
          <mxGeometry y="52" width="160" height="8" as="geometry" />
        </mxCell>
        <mxCell id="0EULkTotXLuiPx0UYuuQ-119" value="+ method(type): type" style="text;strokeColor=none;fillColor=none;align=left;verticalAlign=top;spacingLeft=4;spacingRight=4;overflow=hidden;rotatable=0;points=[[0,0.5],[1,0.5]];portConstraint=eastwest;whiteSpace=wrap;html=1;" parent="0EULkTotXLuiPx0UYuuQ-116" vertex="1">
          <mxGeometry y="60" width="160" height="26" as="geometry" />
        </mxCell>
        <mxCell id="0EULkTotXLuiPx0UYuuQ-133" value="UserBuilder" style="swimlane;fontStyle=1;align=center;verticalAlign=top;childLayout=stackLayout;horizontal=1;startSize=26;horizontalStack=0;resizeParent=1;resizeParentMax=0;resizeLast=0;collapsible=1;marginBottom=0;whiteSpace=wrap;html=1;" parent="1" vertex="1">
          <mxGeometry x="1510" y="-21" width="160" height="86" as="geometry" />
        </mxCell>
        <mxCell id="0EULkTotXLuiPx0UYuuQ-134" value="+ field: type" style="text;strokeColor=none;fillColor=none;align=left;verticalAlign=top;spacingLeft=4;spacingRight=4;overflow=hidden;rotatable=0;points=[[0,0.5],[1,0.5]];portConstraint=eastwest;whiteSpace=wrap;html=1;" parent="0EULkTotXLuiPx0UYuuQ-133" vertex="1">
          <mxGeometry y="26" width="160" height="26" as="geometry" />
        </mxCell>
        <mxCell id="0EULkTotXLuiPx0UYuuQ-135" value="" style="line;strokeWidth=1;fillColor=none;align=left;verticalAlign=middle;spacingTop=-1;spacingLeft=3;spacingRight=3;rotatable=0;labelPosition=right;points=[];portConstraint=eastwest;strokeColor=inherit;" parent="0EULkTotXLuiPx0UYuuQ-133" vertex="1">
          <mxGeometry y="52" width="160" height="8" as="geometry" />
        </mxCell>
        <mxCell id="0EULkTotXLuiPx0UYuuQ-136" value="+ method(type): type" style="text;strokeColor=none;fillColor=none;align=left;verticalAlign=top;spacingLeft=4;spacingRight=4;overflow=hidden;rotatable=0;points=[[0,0.5],[1,0.5]];portConstraint=eastwest;whiteSpace=wrap;html=1;" parent="0EULkTotXLuiPx0UYuuQ-133" vertex="1">
          <mxGeometry y="60" width="160" height="26" as="geometry" />
        </mxCell>
        <mxCell id="0EULkTotXLuiPx0UYuuQ-137" value="PropertyManagerService" style="swimlane;fontStyle=1;align=center;verticalAlign=top;childLayout=stackLayout;horizontal=1;startSize=26;horizontalStack=0;resizeParent=1;resizeParentMax=0;resizeLast=0;collapsible=1;marginBottom=0;whiteSpace=wrap;html=1;" parent="1" vertex="1">
          <mxGeometry x="1162" y="38" width="160" height="86" as="geometry" />
        </mxCell>
        <mxCell id="0EULkTotXLuiPx0UYuuQ-138" value="+ field: type" style="text;strokeColor=none;fillColor=none;align=left;verticalAlign=top;spacingLeft=4;spacingRight=4;overflow=hidden;rotatable=0;points=[[0,0.5],[1,0.5]];portConstraint=eastwest;whiteSpace=wrap;html=1;" parent="0EULkTotXLuiPx0UYuuQ-137" vertex="1">
          <mxGeometry y="26" width="160" height="26" as="geometry" />
        </mxCell>
        <mxCell id="0EULkTotXLuiPx0UYuuQ-139" value="" style="line;strokeWidth=1;fillColor=none;align=left;verticalAlign=middle;spacingTop=-1;spacingLeft=3;spacingRight=3;rotatable=0;labelPosition=right;points=[];portConstraint=eastwest;strokeColor=inherit;" parent="0EULkTotXLuiPx0UYuuQ-137" vertex="1">
          <mxGeometry y="52" width="160" height="8" as="geometry" />
        </mxCell>
        <mxCell id="0EULkTotXLuiPx0UYuuQ-140" value="+ method(type): type" style="text;strokeColor=none;fillColor=none;align=left;verticalAlign=top;spacingLeft=4;spacingRight=4;overflow=hidden;rotatable=0;points=[[0,0.5],[1,0.5]];portConstraint=eastwest;whiteSpace=wrap;html=1;" parent="0EULkTotXLuiPx0UYuuQ-137" vertex="1">
          <mxGeometry y="60" width="160" height="26" as="geometry" />
        </mxCell>
        <mxCell id="0EULkTotXLuiPx0UYuuQ-141" value="ContractorService" style="swimlane;fontStyle=1;align=center;verticalAlign=top;childLayout=stackLayout;horizontal=1;startSize=26;horizontalStack=0;resizeParent=1;resizeParentMax=0;resizeLast=0;collapsible=1;marginBottom=0;whiteSpace=wrap;html=1;" parent="1" vertex="1">
          <mxGeometry x="1162" y="178" width="160" height="86" as="geometry" />
        </mxCell>
        <mxCell id="0EULkTotXLuiPx0UYuuQ-142" value="+ field: type" style="text;strokeColor=none;fillColor=none;align=left;verticalAlign=top;spacingLeft=4;spacingRight=4;overflow=hidden;rotatable=0;points=[[0,0.5],[1,0.5]];portConstraint=eastwest;whiteSpace=wrap;html=1;" parent="0EULkTotXLuiPx0UYuuQ-141" vertex="1">
          <mxGeometry y="26" width="160" height="26" as="geometry" />
        </mxCell>
        <mxCell id="0EULkTotXLuiPx0UYuuQ-143" value="" style="line;strokeWidth=1;fillColor=none;align=left;verticalAlign=middle;spacingTop=-1;spacingLeft=3;spacingRight=3;rotatable=0;labelPosition=right;points=[];portConstraint=eastwest;strokeColor=inherit;" parent="0EULkTotXLuiPx0UYuuQ-141" vertex="1">
          <mxGeometry y="52" width="160" height="8" as="geometry" />
        </mxCell>
        <mxCell id="0EULkTotXLuiPx0UYuuQ-144" value="+ method(type): type" style="text;strokeColor=none;fillColor=none;align=left;verticalAlign=top;spacingLeft=4;spacingRight=4;overflow=hidden;rotatable=0;points=[[0,0.5],[1,0.5]];portConstraint=eastwest;whiteSpace=wrap;html=1;" parent="0EULkTotXLuiPx0UYuuQ-141" vertex="1">
          <mxGeometry y="60" width="160" height="26" as="geometry" />
        </mxCell>
        <mxCell id="0EULkTotXLuiPx0UYuuQ-145" value="SurveyorService" style="swimlane;fontStyle=1;align=center;verticalAlign=top;childLayout=stackLayout;horizontal=1;startSize=26;horizontalStack=0;resizeParent=1;resizeParentMax=0;resizeLast=0;collapsible=1;marginBottom=0;whiteSpace=wrap;html=1;" parent="1" vertex="1">
          <mxGeometry x="1162" y="324" width="160" height="86" as="geometry" />
        </mxCell>
        <mxCell id="0EULkTotXLuiPx0UYuuQ-146" value="+ field: type" style="text;strokeColor=none;fillColor=none;align=left;verticalAlign=top;spacingLeft=4;spacingRight=4;overflow=hidden;rotatable=0;points=[[0,0.5],[1,0.5]];portConstraint=eastwest;whiteSpace=wrap;html=1;" parent="0EULkTotXLuiPx0UYuuQ-145" vertex="1">
          <mxGeometry y="26" width="160" height="26" as="geometry" />
        </mxCell>
        <mxCell id="0EULkTotXLuiPx0UYuuQ-147" value="" style="line;strokeWidth=1;fillColor=none;align=left;verticalAlign=middle;spacingTop=-1;spacingLeft=3;spacingRight=3;rotatable=0;labelPosition=right;points=[];portConstraint=eastwest;strokeColor=inherit;" parent="0EULkTotXLuiPx0UYuuQ-145" vertex="1">
          <mxGeometry y="52" width="160" height="8" as="geometry" />
        </mxCell>
        <mxCell id="0EULkTotXLuiPx0UYuuQ-148" value="+ method(type): type" style="text;strokeColor=none;fillColor=none;align=left;verticalAlign=top;spacingLeft=4;spacingRight=4;overflow=hidden;rotatable=0;points=[[0,0.5],[1,0.5]];portConstraint=eastwest;whiteSpace=wrap;html=1;" parent="0EULkTotXLuiPx0UYuuQ-145" vertex="1">
          <mxGeometry y="60" width="160" height="26" as="geometry" />
        </mxCell>
        <mxCell id="0EULkTotXLuiPx0UYuuQ-153" value="&amp;lt;&amp;lt;Interface&amp;gt;&amp;gt; INoteBuilder" style="swimlane;fontStyle=1;align=center;verticalAlign=top;childLayout=stackLayout;horizontal=1;startSize=26;horizontalStack=0;resizeParent=1;resizeParentMax=0;resizeLast=0;collapsible=1;marginBottom=0;whiteSpace=wrap;html=1;" parent="1" vertex="1">
          <mxGeometry x="114" y="737" width="160" height="86" as="geometry" />
        </mxCell>
        <mxCell id="0EULkTotXLuiPx0UYuuQ-154" value="+ field: type" style="text;strokeColor=none;fillColor=none;align=left;verticalAlign=top;spacingLeft=4;spacingRight=4;overflow=hidden;rotatable=0;points=[[0,0.5],[1,0.5]];portConstraint=eastwest;whiteSpace=wrap;html=1;" parent="0EULkTotXLuiPx0UYuuQ-153" vertex="1">
          <mxGeometry y="26" width="160" height="26" as="geometry" />
        </mxCell>
        <mxCell id="0EULkTotXLuiPx0UYuuQ-155" value="" style="line;strokeWidth=1;fillColor=none;align=left;verticalAlign=middle;spacingTop=-1;spacingLeft=3;spacingRight=3;rotatable=0;labelPosition=right;points=[];portConstraint=eastwest;strokeColor=inherit;" parent="0EULkTotXLuiPx0UYuuQ-153" vertex="1">
          <mxGeometry y="52" width="160" height="8" as="geometry" />
        </mxCell>
        <mxCell id="0EULkTotXLuiPx0UYuuQ-156" value="+ method(type): type" style="text;strokeColor=none;fillColor=none;align=left;verticalAlign=top;spacingLeft=4;spacingRight=4;overflow=hidden;rotatable=0;points=[[0,0.5],[1,0.5]];portConstraint=eastwest;whiteSpace=wrap;html=1;" parent="0EULkTotXLuiPx0UYuuQ-153" vertex="1">
          <mxGeometry y="60" width="160" height="26" as="geometry" />
        </mxCell>
        <mxCell id="0EULkTotXLuiPx0UYuuQ-157" value="&amp;lt;&amp;lt;Interface&amp;gt;&amp;gt; IManageContact" style="swimlane;fontStyle=1;align=center;verticalAlign=top;childLayout=stackLayout;horizontal=1;startSize=26;horizontalStack=0;resizeParent=1;resizeParentMax=0;resizeLast=0;collapsible=1;marginBottom=0;whiteSpace=wrap;html=1;" parent="1" vertex="1">
          <mxGeometry x="1510" y="113" width="185" height="86" as="geometry" />
        </mxCell>
        <mxCell id="0EULkTotXLuiPx0UYuuQ-158" value="+ field: type" style="text;strokeColor=none;fillColor=none;align=left;verticalAlign=top;spacingLeft=4;spacingRight=4;overflow=hidden;rotatable=0;points=[[0,0.5],[1,0.5]];portConstraint=eastwest;whiteSpace=wrap;html=1;" parent="0EULkTotXLuiPx0UYuuQ-157" vertex="1">
          <mxGeometry y="26" width="185" height="26" as="geometry" />
        </mxCell>
        <mxCell id="0EULkTotXLuiPx0UYuuQ-159" value="" style="line;strokeWidth=1;fillColor=none;align=left;verticalAlign=middle;spacingTop=-1;spacingLeft=3;spacingRight=3;rotatable=0;labelPosition=right;points=[];portConstraint=eastwest;strokeColor=inherit;" parent="0EULkTotXLuiPx0UYuuQ-157" vertex="1">
          <mxGeometry y="52" width="185" height="8" as="geometry" />
        </mxCell>
        <mxCell id="0EULkTotXLuiPx0UYuuQ-160" value="+ method(type): type" style="text;strokeColor=none;fillColor=none;align=left;verticalAlign=top;spacingLeft=4;spacingRight=4;overflow=hidden;rotatable=0;points=[[0,0.5],[1,0.5]];portConstraint=eastwest;whiteSpace=wrap;html=1;" parent="0EULkTotXLuiPx0UYuuQ-157" vertex="1">
          <mxGeometry y="60" width="185" height="26" as="geometry" />
        </mxCell>
        <mxCell id="0EULkTotXLuiPx0UYuuQ-161" value="&amp;lt;&amp;lt;Interface&amp;gt;&amp;gt; IHourlyRate" style="swimlane;fontStyle=1;align=center;verticalAlign=top;childLayout=stackLayout;horizontal=1;startSize=26;horizontalStack=0;resizeParent=1;resizeParentMax=0;resizeLast=0;collapsible=1;marginBottom=0;whiteSpace=wrap;html=1;" parent="1" vertex="1">
          <mxGeometry x="1510" y="233" width="192" height="86" as="geometry" />
        </mxCell>
        <mxCell id="0EULkTotXLuiPx0UYuuQ-162" value="+ field: type" style="text;strokeColor=none;fillColor=none;align=left;verticalAlign=top;spacingLeft=4;spacingRight=4;overflow=hidden;rotatable=0;points=[[0,0.5],[1,0.5]];portConstraint=eastwest;whiteSpace=wrap;html=1;" parent="0EULkTotXLuiPx0UYuuQ-161" vertex="1">
          <mxGeometry y="26" width="192" height="26" as="geometry" />
        </mxCell>
        <mxCell id="0EULkTotXLuiPx0UYuuQ-163" value="" style="line;strokeWidth=1;fillColor=none;align=left;verticalAlign=middle;spacingTop=-1;spacingLeft=3;spacingRight=3;rotatable=0;labelPosition=right;points=[];portConstraint=eastwest;strokeColor=inherit;" parent="0EULkTotXLuiPx0UYuuQ-161" vertex="1">
          <mxGeometry y="52" width="192" height="8" as="geometry" />
        </mxCell>
        <mxCell id="0EULkTotXLuiPx0UYuuQ-164" value="+ method(type): type" style="text;strokeColor=none;fillColor=none;align=left;verticalAlign=top;spacingLeft=4;spacingRight=4;overflow=hidden;rotatable=0;points=[[0,0.5],[1,0.5]];portConstraint=eastwest;whiteSpace=wrap;html=1;" parent="0EULkTotXLuiPx0UYuuQ-161" vertex="1">
          <mxGeometry y="60" width="192" height="26" as="geometry" />
        </mxCell>
        <mxCell id="0EULkTotXLuiPx0UYuuQ-165" value="&amp;lt;&amp;lt;Interface&amp;gt;&amp;gt; IAddSurvey" style="swimlane;fontStyle=1;align=center;verticalAlign=top;childLayout=stackLayout;horizontal=1;startSize=26;horizontalStack=0;resizeParent=1;resizeParentMax=0;resizeLast=0;collapsible=1;marginBottom=0;whiteSpace=wrap;html=1;" parent="1" vertex="1">
          <mxGeometry x="1510" y="356" width="183" height="86" as="geometry" />
        </mxCell>
        <mxCell id="0EULkTotXLuiPx0UYuuQ-166" value="+ field: type" style="text;strokeColor=none;fillColor=none;align=left;verticalAlign=top;spacingLeft=4;spacingRight=4;overflow=hidden;rotatable=0;points=[[0,0.5],[1,0.5]];portConstraint=eastwest;whiteSpace=wrap;html=1;" parent="0EULkTotXLuiPx0UYuuQ-165" vertex="1">
          <mxGeometry y="26" width="183" height="26" as="geometry" />
        </mxCell>
        <mxCell id="0EULkTotXLuiPx0UYuuQ-167" value="" style="line;strokeWidth=1;fillColor=none;align=left;verticalAlign=middle;spacingTop=-1;spacingLeft=3;spacingRight=3;rotatable=0;labelPosition=right;points=[];portConstraint=eastwest;strokeColor=inherit;" parent="0EULkTotXLuiPx0UYuuQ-165" vertex="1">
          <mxGeometry y="52" width="183" height="8" as="geometry" />
        </mxCell>
        <mxCell id="0EULkTotXLuiPx0UYuuQ-168" value="+ method(type): type" style="text;strokeColor=none;fillColor=none;align=left;verticalAlign=top;spacingLeft=4;spacingRight=4;overflow=hidden;rotatable=0;points=[[0,0.5],[1,0.5]];portConstraint=eastwest;whiteSpace=wrap;html=1;" parent="0EULkTotXLuiPx0UYuuQ-165" vertex="1">
          <mxGeometry y="60" width="183" height="26" as="geometry" />
        </mxCell>
        <mxCell id="0EULkTotXLuiPx0UYuuQ-169" value="" style="endArrow=diamondThin;endFill=0;endSize=24;html=1;rounded=0;fontSize=12;curved=1;exitX=0;exitY=0.5;exitDx=0;exitDy=0;entryX=1;entryY=0.5;entryDx=0;entryDy=0;" parent="1" source="0EULkTotXLuiPx0UYuuQ-5" target="0EULkTotXLuiPx0UYuuQ-73" edge="1">
          <mxGeometry width="160" relative="1" as="geometry">
            <mxPoint x="22" y="207" as="sourcePoint" />
            <mxPoint x="182" y="207" as="targetPoint" />
          </mxGeometry>
        </mxCell>
        <mxCell id="0EULkTotXLuiPx0UYuuQ-170" value="" style="endArrow=diamondThin;endFill=0;endSize=24;html=1;rounded=0;fontSize=12;curved=1;exitX=0.238;exitY=0.932;exitDx=0;exitDy=0;entryX=0.25;entryY=0;entryDx=0;entryDy=0;exitPerimeter=0;" parent="1" source="0EULkTotXLuiPx0UYuuQ-11" target="0EULkTotXLuiPx0UYuuQ-92" edge="1">
          <mxGeometry width="160" relative="1" as="geometry">
            <mxPoint x="194" y="333" as="sourcePoint" />
            <mxPoint x="92" y="333" as="targetPoint" />
          </mxGeometry>
        </mxCell>
        <mxCell id="0EULkTotXLuiPx0UYuuQ-171" value="" style="endArrow=diamondThin;endFill=0;endSize=24;html=1;rounded=0;fontSize=12;curved=1;exitX=0.636;exitY=1.003;exitDx=0;exitDy=0;entryX=0.835;entryY=-0.001;entryDx=0;entryDy=0;exitPerimeter=0;entryPerimeter=0;" parent="1" source="0EULkTotXLuiPx0UYuuQ-15" target="0EULkTotXLuiPx0UYuuQ-108" edge="1">
          <mxGeometry width="160" relative="1" as="geometry">
            <mxPoint x="418" y="275" as="sourcePoint" />
            <mxPoint x="420" y="483" as="targetPoint" />
          </mxGeometry>
        </mxCell>
        <mxCell id="0EULkTotXLuiPx0UYuuQ-172" value="" style="endArrow=none;html=1;rounded=0;fontSize=12;startSize=8;endSize=8;curved=1;exitX=0.5;exitY=0;exitDx=0;exitDy=0;entryX=0.5;entryY=1;entryDx=0;entryDy=0;" parent="1" source="0EULkTotXLuiPx0UYuuQ-36" target="0EULkTotXLuiPx0UYuuQ-8" edge="1">
          <mxGeometry width="50" height="50" relative="1" as="geometry">
            <mxPoint x="59" y="339" as="sourcePoint" />
            <mxPoint x="109" y="289" as="targetPoint" />
          </mxGeometry>
        </mxCell>
        <mxCell id="0EULkTotXLuiPx0UYuuQ-175" value="1" style="edgeLabel;html=1;align=center;verticalAlign=middle;resizable=0;points=[];fontSize=12;" parent="0EULkTotXLuiPx0UYuuQ-172" vertex="1" connectable="0">
          <mxGeometry x="0.7708" relative="1" as="geometry">
            <mxPoint x="-5" y="9" as="offset" />
          </mxGeometry>
        </mxCell>
        <mxCell id="0EULkTotXLuiPx0UYuuQ-173" value="" style="endArrow=none;html=1;rounded=0;fontSize=12;startSize=8;endSize=8;curved=1;exitX=0.529;exitY=1.077;exitDx=0;exitDy=0;exitPerimeter=0;" parent="1" source="0EULkTotXLuiPx0UYuuQ-15" edge="1">
          <mxGeometry width="50" height="50" relative="1" as="geometry">
            <mxPoint x="304" y="317" as="sourcePoint" />
            <mxPoint x="294" y="306" as="targetPoint" />
          </mxGeometry>
        </mxCell>
        <mxCell id="0EULkTotXLuiPx0UYuuQ-176" value="1" style="edgeLabel;html=1;align=center;verticalAlign=middle;resizable=0;points=[];fontSize=12;" parent="0EULkTotXLuiPx0UYuuQ-173" vertex="1" connectable="0">
          <mxGeometry x="-0.7261" y="-1" relative="1" as="geometry">
            <mxPoint x="10" y="7" as="offset" />
          </mxGeometry>
        </mxCell>
        <mxCell id="0EULkTotXLuiPx0UYuuQ-177" value="0...*" style="edgeLabel;html=1;align=center;verticalAlign=middle;resizable=0;points=[];fontSize=12;" parent="1" vertex="1" connectable="0">
          <mxGeometry x="341.00237658758505" y="298.00082088328674" as="geometry">
            <mxPoint x="2" as="offset" />
          </mxGeometry>
        </mxCell>
        <mxCell id="0EULkTotXLuiPx0UYuuQ-178" value="0...*" style="edgeLabel;html=1;align=center;verticalAlign=middle;resizable=0;points=[];fontSize=12;" parent="1" vertex="1" connectable="0">
          <mxGeometry x="248.00237658758505" y="298.00082088328674" as="geometry">
            <mxPoint x="2" as="offset" />
          </mxGeometry>
        </mxCell>
        <mxCell id="0EULkTotXLuiPx0UYuuQ-179" value="1" style="edgeLabel;html=1;align=center;verticalAlign=middle;resizable=0;points=[];fontSize=12;" parent="1" vertex="1" connectable="0">
          <mxGeometry x="221.00330773445464" y="282.6002186038445" as="geometry">
            <mxPoint x="-68" y="-16" as="offset" />
          </mxGeometry>
        </mxCell>
        <mxCell id="0EULkTotXLuiPx0UYuuQ-180" value="1" style="edgeLabel;html=1;align=center;verticalAlign=middle;resizable=0;points=[];fontSize=12;" parent="1" vertex="1" connectable="0">
          <mxGeometry x="223.00330773445464" y="298.0002186038445" as="geometry">
            <mxPoint x="205" y="-30" as="offset" />
          </mxGeometry>
        </mxCell>
        <mxCell id="0EULkTotXLuiPx0UYuuQ-181" value="1" style="edgeLabel;html=1;align=center;verticalAlign=middle;resizable=0;points=[];fontSize=12;" parent="1" vertex="1" connectable="0">
          <mxGeometry x="-113.99669226554539" y="93.0002186038445" as="geometry">
            <mxPoint x="6" y="-3" as="offset" />
          </mxGeometry>
        </mxCell>
        <mxCell id="I50PDst2qrP9DVb1H3ON-9" value="RequestBuilder" style="swimlane;fontStyle=1;align=center;verticalAlign=top;childLayout=stackLayout;horizontal=1;startSize=26;horizontalStack=0;resizeParent=1;resizeParentMax=0;resizeLast=0;collapsible=1;marginBottom=0;whiteSpace=wrap;html=1;" vertex="1" parent="1">
          <mxGeometry x="114" y="576" width="160" height="86" as="geometry" />
        </mxCell>
        <mxCell id="I50PDst2qrP9DVb1H3ON-10" value="+ field: type" style="text;strokeColor=none;fillColor=none;align=left;verticalAlign=top;spacingLeft=4;spacingRight=4;overflow=hidden;rotatable=0;points=[[0,0.5],[1,0.5]];portConstraint=eastwest;whiteSpace=wrap;html=1;" vertex="1" parent="I50PDst2qrP9DVb1H3ON-9">
          <mxGeometry y="26" width="160" height="26" as="geometry" />
        </mxCell>
        <mxCell id="I50PDst2qrP9DVb1H3ON-11" value="" style="line;strokeWidth=1;fillColor=none;align=left;verticalAlign=middle;spacingTop=-1;spacingLeft=3;spacingRight=3;rotatable=0;labelPosition=right;points=[];portConstraint=eastwest;strokeColor=inherit;" vertex="1" parent="I50PDst2qrP9DVb1H3ON-9">
          <mxGeometry y="52" width="160" height="8" as="geometry" />
        </mxCell>
        <mxCell id="I50PDst2qrP9DVb1H3ON-12" value="+ method(type): type" style="text;strokeColor=none;fillColor=none;align=left;verticalAlign=top;spacingLeft=4;spacingRight=4;overflow=hidden;rotatable=0;points=[[0,0.5],[1,0.5]];portConstraint=eastwest;whiteSpace=wrap;html=1;" vertex="1" parent="I50PDst2qrP9DVb1H3ON-9">
          <mxGeometry y="60" width="160" height="26" as="geometry" />
        </mxCell>
        <mxCell id="I50PDst2qrP9DVb1H3ON-13" value="QuoteBuilder" style="swimlane;fontStyle=1;align=center;verticalAlign=top;childLayout=stackLayout;horizontal=1;startSize=26;horizontalStack=0;resizeParent=1;resizeParentMax=0;resizeLast=0;collapsible=1;marginBottom=0;whiteSpace=wrap;html=1;" vertex="1" parent="1">
          <mxGeometry x="316" y="576" width="160" height="86" as="geometry" />
        </mxCell>
        <mxCell id="I50PDst2qrP9DVb1H3ON-14" value="+ field: type" style="text;strokeColor=none;fillColor=none;align=left;verticalAlign=top;spacingLeft=4;spacingRight=4;overflow=hidden;rotatable=0;points=[[0,0.5],[1,0.5]];portConstraint=eastwest;whiteSpace=wrap;html=1;" vertex="1" parent="I50PDst2qrP9DVb1H3ON-13">
          <mxGeometry y="26" width="160" height="26" as="geometry" />
        </mxCell>
        <mxCell id="I50PDst2qrP9DVb1H3ON-15" value="" style="line;strokeWidth=1;fillColor=none;align=left;verticalAlign=middle;spacingTop=-1;spacingLeft=3;spacingRight=3;rotatable=0;labelPosition=right;points=[];portConstraint=eastwest;strokeColor=inherit;" vertex="1" parent="I50PDst2qrP9DVb1H3ON-13">
          <mxGeometry y="52" width="160" height="8" as="geometry" />
        </mxCell>
        <mxCell id="I50PDst2qrP9DVb1H3ON-16" value="+ method(type): type" style="text;strokeColor=none;fillColor=none;align=left;verticalAlign=top;spacingLeft=4;spacingRight=4;overflow=hidden;rotatable=0;points=[[0,0.5],[1,0.5]];portConstraint=eastwest;whiteSpace=wrap;html=1;" vertex="1" parent="I50PDst2qrP9DVb1H3ON-13">
          <mxGeometry y="60" width="160" height="26" as="geometry" />
        </mxCell>
        <mxCell id="I50PDst2qrP9DVb1H3ON-23" value="" style="endArrow=open;endSize=12;dashed=1;html=1;rounded=0;fontSize=12;curved=1;entryX=0.493;entryY=1.022;entryDx=0;entryDy=0;entryPerimeter=0;" edge="1" parent="1" target="0EULkTotXLuiPx0UYuuQ-111">
          <mxGeometry width="160" relative="1" as="geometry">
            <mxPoint x="395" y="576" as="sourcePoint" />
            <mxPoint x="459" y="724" as="targetPoint" />
          </mxGeometry>
        </mxCell>
        <mxCell id="I50PDst2qrP9DVb1H3ON-25" value="" style="endArrow=open;endSize=12;dashed=1;html=1;rounded=0;fontSize=12;curved=1;entryX=0.505;entryY=0.998;entryDx=0;entryDy=0;entryPerimeter=0;" edge="1" parent="1" target="0EULkTotXLuiPx0UYuuQ-95">
          <mxGeometry width="160" relative="1" as="geometry">
            <mxPoint x="194" y="579" as="sourcePoint" />
            <mxPoint x="192.66" y="670" as="targetPoint" />
          </mxGeometry>
        </mxCell>
        <mxCell id="I50PDst2qrP9DVb1H3ON-28" value="" style="endArrow=block;startArrow=none;endFill=0;startFill=0;endSize=8;html=1;verticalAlign=bottom;dashed=1;labelBackgroundColor=none;rounded=0;fontSize=12;curved=1;entryX=0.492;entryY=0.925;entryDx=0;entryDy=0;entryPerimeter=0;" edge="1" parent="1" target="I50PDst2qrP9DVb1H3ON-16">
          <mxGeometry width="160" relative="1" as="geometry">
            <mxPoint x="396" y="735" as="sourcePoint" />
            <mxPoint x="495" y="671" as="targetPoint" />
          </mxGeometry>
        </mxCell>
        <mxCell id="I50PDst2qrP9DVb1H3ON-29" value="" style="endArrow=block;startArrow=none;endFill=0;startFill=0;endSize=8;html=1;verticalAlign=bottom;dashed=1;labelBackgroundColor=none;rounded=0;fontSize=12;curved=1;entryX=0.472;entryY=1.009;entryDx=0;entryDy=0;entryPerimeter=0;" edge="1" parent="1" target="I50PDst2qrP9DVb1H3ON-12">
          <mxGeometry width="160" relative="1" as="geometry">
            <mxPoint x="189" y="735" as="sourcePoint" />
            <mxPoint x="404" y="675" as="targetPoint" />
          </mxGeometry>
        </mxCell>
        <mxCell id="I50PDst2qrP9DVb1H3ON-30" value="" style="endArrow=block;startArrow=none;endFill=0;startFill=0;endSize=8;html=1;verticalAlign=bottom;dashed=1;labelBackgroundColor=none;rounded=0;fontSize=12;curved=1;entryX=0.485;entryY=0.968;entryDx=0;entryDy=0;entryPerimeter=0;" edge="1" parent="1" target="I50PDst2qrP9DVb1H3ON-16">
          <mxGeometry width="160" relative="1" as="geometry">
            <mxPoint x="189" y="736" as="sourcePoint" />
            <mxPoint x="200" y="672" as="targetPoint" />
          </mxGeometry>
        </mxCell>
        <mxCell id="I50PDst2qrP9DVb1H3ON-31" value="" style="endArrow=block;startArrow=none;endFill=0;startFill=0;endSize=8;html=1;verticalAlign=bottom;dashed=1;labelBackgroundColor=none;rounded=0;fontSize=12;curved=1;exitX=0.5;exitY=0;exitDx=0;exitDy=0;entryX=0.477;entryY=1.01;entryDx=0;entryDy=0;entryPerimeter=0;" edge="1" parent="1" source="0EULkTotXLuiPx0UYuuQ-116" target="I50PDst2qrP9DVb1H3ON-12">
          <mxGeometry width="160" relative="1" as="geometry">
            <mxPoint x="199" y="746" as="sourcePoint" />
            <mxPoint x="190" y="663" as="targetPoint" />
          </mxGeometry>
        </mxCell>
        <mxCell id="I50PDst2qrP9DVb1H3ON-35" value="" style="endArrow=open;endSize=12;dashed=1;html=1;rounded=0;fontSize=12;curved=1;entryX=1;entryY=0.5;entryDx=0;entryDy=0;exitX=0.002;exitY=0.292;exitDx=0;exitDy=0;exitPerimeter=0;" edge="1" parent="1" source="0EULkTotXLuiPx0UYuuQ-133" target="0EULkTotXLuiPx0UYuuQ-138">
          <mxGeometry width="160" relative="1" as="geometry">
            <mxPoint x="1348" y="194" as="sourcePoint" />
            <mxPoint x="1351" y="116" as="targetPoint" />
          </mxGeometry>
        </mxCell>
        <mxCell id="I50PDst2qrP9DVb1H3ON-36" value="" style="endArrow=open;endSize=12;dashed=1;html=1;rounded=0;fontSize=12;curved=1;entryX=1;entryY=0.929;entryDx=0;entryDy=0;exitX=0.006;exitY=0.498;exitDx=0;exitDy=0;exitPerimeter=0;entryPerimeter=0;" edge="1" parent="1" source="0EULkTotXLuiPx0UYuuQ-135" target="0EULkTotXLuiPx0UYuuQ-142">
          <mxGeometry width="160" relative="1" as="geometry">
            <mxPoint x="1408" y="170" as="sourcePoint" />
            <mxPoint x="1332" y="87" as="targetPoint" />
          </mxGeometry>
        </mxCell>
        <mxCell id="I50PDst2qrP9DVb1H3ON-37" value="" style="endArrow=open;endSize=12;dashed=1;html=1;rounded=0;fontSize=12;curved=1;entryX=1.009;entryY=1.114;entryDx=0;entryDy=0;exitX=0;exitY=1;exitDx=0;exitDy=0;entryPerimeter=0;" edge="1" parent="1" source="0EULkTotXLuiPx0UYuuQ-133" target="0EULkTotXLuiPx0UYuuQ-146">
          <mxGeometry width="160" relative="1" as="geometry">
            <mxPoint x="1410" y="171" as="sourcePoint" />
            <mxPoint x="1332" y="238" as="targetPoint" />
          </mxGeometry>
        </mxCell>
        <mxCell id="I50PDst2qrP9DVb1H3ON-39" value="" style="endArrow=block;startArrow=none;endFill=0;startFill=0;endSize=8;html=1;verticalAlign=bottom;dashed=1;labelBackgroundColor=none;rounded=0;fontSize=12;curved=1;entryX=1.009;entryY=0.958;entryDx=0;entryDy=0;entryPerimeter=0;exitX=0.017;exitY=0.638;exitDx=0;exitDy=0;exitPerimeter=0;" edge="1" parent="1" source="0EULkTotXLuiPx0UYuuQ-159" target="0EULkTotXLuiPx0UYuuQ-142">
          <mxGeometry width="160" relative="1" as="geometry">
            <mxPoint x="1333" y="397" as="sourcePoint" />
            <mxPoint x="1493" y="397" as="targetPoint" />
          </mxGeometry>
        </mxCell>
        <mxCell id="I50PDst2qrP9DVb1H3ON-40" value="" style="endArrow=block;startArrow=none;endFill=0;startFill=0;endSize=8;html=1;verticalAlign=bottom;dashed=1;labelBackgroundColor=none;rounded=0;fontSize=12;curved=1;entryX=0.995;entryY=0.825;entryDx=0;entryDy=0;entryPerimeter=0;exitX=0;exitY=0.291;exitDx=0;exitDy=0;exitPerimeter=0;" edge="1" parent="1" source="0EULkTotXLuiPx0UYuuQ-157" target="0EULkTotXLuiPx0UYuuQ-138">
          <mxGeometry width="160" relative="1" as="geometry">
            <mxPoint x="1392" y="263" as="sourcePoint" />
            <mxPoint x="1333" y="239" as="targetPoint" />
          </mxGeometry>
        </mxCell>
        <mxCell id="I50PDst2qrP9DVb1H3ON-41" value="" style="endArrow=block;startArrow=none;endFill=0;startFill=0;endSize=8;html=1;verticalAlign=bottom;dashed=1;labelBackgroundColor=none;rounded=0;fontSize=12;curved=1;entryX=1.004;entryY=0.011;entryDx=0;entryDy=0;entryPerimeter=0;exitX=-0.01;exitY=1.115;exitDx=0;exitDy=0;exitPerimeter=0;" edge="1" parent="1" source="0EULkTotXLuiPx0UYuuQ-162" target="0EULkTotXLuiPx0UYuuQ-146">
          <mxGeometry width="160" relative="1" as="geometry">
            <mxPoint x="1406" y="273" as="sourcePoint" />
            <mxPoint x="1331" y="95" as="targetPoint" />
          </mxGeometry>
        </mxCell>
        <mxCell id="I50PDst2qrP9DVb1H3ON-42" value="" style="endArrow=block;startArrow=none;endFill=0;startFill=0;endSize=8;html=1;verticalAlign=bottom;dashed=1;labelBackgroundColor=none;rounded=0;fontSize=12;curved=1;entryX=1;entryY=0.25;entryDx=0;entryDy=0;exitX=-0.006;exitY=0.004;exitDx=0;exitDy=0;exitPerimeter=0;" edge="1" parent="1" source="0EULkTotXLuiPx0UYuuQ-162" target="0EULkTotXLuiPx0UYuuQ-141">
          <mxGeometry width="160" relative="1" as="geometry">
            <mxPoint x="1404" y="423" as="sourcePoint" />
            <mxPoint x="1333" y="360" as="targetPoint" />
          </mxGeometry>
        </mxCell>
        <mxCell id="I50PDst2qrP9DVb1H3ON-43" value="" style="endArrow=block;startArrow=none;endFill=0;startFill=0;endSize=8;html=1;verticalAlign=bottom;dashed=1;labelBackgroundColor=none;rounded=0;fontSize=12;curved=1;entryX=1;entryY=0.5;entryDx=0;entryDy=0;exitX=-0.011;exitY=1.017;exitDx=0;exitDy=0;exitPerimeter=0;" edge="1" parent="1" source="0EULkTotXLuiPx0UYuuQ-166" target="0EULkTotXLuiPx0UYuuQ-148">
          <mxGeometry width="160" relative="1" as="geometry">
            <mxPoint x="1405" y="394" as="sourcePoint" />
            <mxPoint x="1332" y="210" as="targetPoint" />
          </mxGeometry>
        </mxCell>
        <mxCell id="I50PDst2qrP9DVb1H3ON-48" value="" style="endArrow=none;html=1;rounded=0;fontSize=12;startSize=8;endSize=8;curved=1;exitX=0.606;exitY=1.036;exitDx=0;exitDy=0;exitPerimeter=0;entryX=0;entryY=0.25;entryDx=0;entryDy=0;" edge="1" parent="1" source="0EULkTotXLuiPx0UYuuQ-27" target="0EULkTotXLuiPx0UYuuQ-40">
          <mxGeometry width="50" height="50" relative="1" as="geometry">
            <mxPoint x="878" y="146" as="sourcePoint" />
            <mxPoint x="880" y="190" as="targetPoint" />
          </mxGeometry>
        </mxCell>
        <mxCell id="I50PDst2qrP9DVb1H3ON-49" value="1" style="edgeLabel;html=1;align=center;verticalAlign=middle;resizable=0;points=[];fontSize=12;" vertex="1" connectable="0" parent="I50PDst2qrP9DVb1H3ON-48">
          <mxGeometry x="-0.7356" relative="1" as="geometry">
            <mxPoint x="9" y="1" as="offset" />
          </mxGeometry>
        </mxCell>
        <mxCell id="I50PDst2qrP9DVb1H3ON-50" value="1" style="edgeLabel;html=1;align=center;verticalAlign=middle;resizable=0;points=[];fontSize=12;" vertex="1" connectable="0" parent="I50PDst2qrP9DVb1H3ON-48">
          <mxGeometry x="0.596" y="-1" relative="1" as="geometry">
            <mxPoint x="8" y="1" as="offset" />
          </mxGeometry>
        </mxCell>
        <mxCell id="I50PDst2qrP9DVb1H3ON-51" value="" style="endArrow=none;html=1;rounded=0;fontSize=12;startSize=8;endSize=8;curved=1;exitX=1.001;exitY=0.759;exitDx=0;exitDy=0;exitPerimeter=0;entryX=-0.001;entryY=0.904;entryDx=0;entryDy=0;entryPerimeter=0;" edge="1" parent="1" source="0EULkTotXLuiPx0UYuuQ-23" target="0EULkTotXLuiPx0UYuuQ-41">
          <mxGeometry width="50" height="50" relative="1" as="geometry">
            <mxPoint x="822" y="137" as="sourcePoint" />
            <mxPoint x="914" y="208" as="targetPoint" />
          </mxGeometry>
        </mxCell>
        <mxCell id="I50PDst2qrP9DVb1H3ON-52" value="1" style="edgeLabel;html=1;align=center;verticalAlign=middle;resizable=0;points=[];fontSize=12;" vertex="1" connectable="0" parent="I50PDst2qrP9DVb1H3ON-51">
          <mxGeometry x="-0.7356" relative="1" as="geometry">
            <mxPoint x="-13" y="10" as="offset" />
          </mxGeometry>
        </mxCell>
        <mxCell id="I50PDst2qrP9DVb1H3ON-53" value="1" style="edgeLabel;html=1;align=center;verticalAlign=middle;resizable=0;points=[];fontSize=12;" vertex="1" connectable="0" parent="I50PDst2qrP9DVb1H3ON-51">
          <mxGeometry x="0.596" y="-1" relative="1" as="geometry">
            <mxPoint x="34" y="-11" as="offset" />
          </mxGeometry>
        </mxCell>
        <mxCell id="I50PDst2qrP9DVb1H3ON-57" value="" style="endArrow=none;html=1;rounded=0;fontSize=12;startSize=8;endSize=8;curved=1;exitX=1.018;exitY=0.294;exitDx=0;exitDy=0;exitPerimeter=0;entryX=0;entryY=0.5;entryDx=0;entryDy=0;" edge="1" parent="1" source="0EULkTotXLuiPx0UYuuQ-77" target="0EULkTotXLuiPx0UYuuQ-24">
          <mxGeometry width="50" height="50" relative="1" as="geometry">
            <mxPoint x="488" y="99" as="sourcePoint" />
            <mxPoint x="534" y="99" as="targetPoint" />
          </mxGeometry>
        </mxCell>
        <mxCell id="I50PDst2qrP9DVb1H3ON-59" value="1" style="edgeLabel;html=1;align=center;verticalAlign=middle;resizable=0;points=[];fontSize=12;" vertex="1" connectable="0" parent="I50PDst2qrP9DVb1H3ON-57">
          <mxGeometry x="0.596" y="-1" relative="1" as="geometry">
            <mxPoint x="42" y="-7" as="offset" />
          </mxGeometry>
        </mxCell>
        <mxCell id="I50PDst2qrP9DVb1H3ON-64" value="&lt;sub&gt;&lt;b&gt;THE USERS ACTS AS A MEDIATOR FOR THE CONTACT INFOS&lt;/b&gt;&lt;/sub&gt;" style="text;strokeColor=none;fillColor=none;html=1;align=center;verticalAlign=middle;whiteSpace=wrap;rounded=0;fontSize=16;" vertex="1" parent="1">
          <mxGeometry x="647" y="-274" width="277" height="30" as="geometry" />
        </mxCell>
        <mxCell id="I50PDst2qrP9DVb1H3ON-71" value="" style="edgeStyle=none;html=1;endSize=12;endArrow=block;endFill=0;rounded=0;fontSize=12;curved=1;entryX=0.542;entryY=0.786;entryDx=0;entryDy=0;entryPerimeter=0;exitX=0.5;exitY=0;exitDx=0;exitDy=0;" edge="1" parent="1" source="0EULkTotXLuiPx0UYuuQ-12" target="0EULkTotXLuiPx0UYuuQ-78">
          <mxGeometry width="160" relative="1" as="geometry">
            <mxPoint x="334" y="41" as="sourcePoint" />
            <mxPoint x="293.62000000000035" y="59.115999999999985" as="targetPoint" />
          </mxGeometry>
        </mxCell>
        <mxCell id="I50PDst2qrP9DVb1H3ON-72" value="" style="edgeStyle=none;html=1;endSize=12;endArrow=block;endFill=0;rounded=0;fontSize=12;curved=1;entryX=0.5;entryY=1;entryDx=0;entryDy=0;exitX=0.5;exitY=0;exitDx=0;exitDy=0;" edge="1" parent="1" source="0EULkTotXLuiPx0UYuuQ-8" target="0EULkTotXLuiPx0UYuuQ-76">
          <mxGeometry width="160" relative="1" as="geometry">
            <mxPoint x="406" y="50" as="sourcePoint" />
            <mxPoint x="295.1399999999999" y="61.144000000000005" as="targetPoint" />
          </mxGeometry>
        </mxCell>
        <mxCell id="I50PDst2qrP9DVb1H3ON-73" value="" style="edgeStyle=none;html=1;endSize=12;endArrow=block;endFill=0;rounded=0;fontSize=12;curved=1;entryX=0.501;entryY=1.073;entryDx=0;entryDy=0;entryPerimeter=0;exitX=0.5;exitY=0;exitDx=0;exitDy=0;" edge="1" parent="1" source="0EULkTotXLuiPx0UYuuQ-20" target="0EULkTotXLuiPx0UYuuQ-35">
          <mxGeometry width="160" relative="1" as="geometry">
            <mxPoint x="672" y="154" as="sourcePoint" />
            <mxPoint x="832" y="154" as="targetPoint" />
          </mxGeometry>
        </mxCell>
        <mxCell id="I50PDst2qrP9DVb1H3ON-74" value="" style="edgeStyle=none;html=1;endSize=12;endArrow=block;endFill=0;rounded=0;fontSize=12;curved=1;entryX=0.545;entryY=1.038;entryDx=0;entryDy=0;entryPerimeter=0;exitX=0.5;exitY=0;exitDx=0;exitDy=0;" edge="1" parent="1" source="0EULkTotXLuiPx0UYuuQ-24" target="0EULkTotXLuiPx0UYuuQ-35">
          <mxGeometry width="160" relative="1" as="geometry">
            <mxPoint x="615" y="155" as="sourcePoint" />
            <mxPoint x="787" y="5" as="targetPoint" />
          </mxGeometry>
        </mxCell>
        <mxCell id="I50PDst2qrP9DVb1H3ON-76" value="" style="edgeStyle=none;html=1;endSize=12;endArrow=block;endFill=0;rounded=0;fontSize=12;curved=1;entryX=0.982;entryY=1.141;entryDx=0;entryDy=0;entryPerimeter=0;exitX=0.5;exitY=0;exitDx=0;exitDy=0;" edge="1" parent="1" source="0EULkTotXLuiPx0UYuuQ-28" target="0EULkTotXLuiPx0UYuuQ-35">
          <mxGeometry width="160" relative="1" as="geometry">
            <mxPoint x="805" y="136" as="sourcePoint" />
            <mxPoint x="798" y="4" as="targetPoint" />
          </mxGeometry>
        </mxCell>
        <mxCell id="I50PDst2qrP9DVb1H3ON-79" value="" style="endArrow=diamondThin;endFill=0;endSize=24;html=1;rounded=0;fontSize=12;curved=1;exitX=1.026;exitY=1.055;exitDx=0;exitDy=0;exitPerimeter=0;" edge="1" parent="1" source="0EULkTotXLuiPx0UYuuQ-49" target="0EULkTotXLuiPx0UYuuQ-148">
          <mxGeometry width="160" relative="1" as="geometry">
            <mxPoint x="1077" y="488" as="sourcePoint" />
            <mxPoint x="1170" y="384" as="targetPoint" />
          </mxGeometry>
        </mxCell>
        <mxCell id="I50PDst2qrP9DVb1H3ON-80" value="1" style="edgeLabel;html=1;align=center;verticalAlign=middle;resizable=0;points=[];fontSize=12;" vertex="1" connectable="0" parent="I50PDst2qrP9DVb1H3ON-79">
          <mxGeometry x="-0.7722" y="1" relative="1" as="geometry">
            <mxPoint x="9" y="9" as="offset" />
          </mxGeometry>
        </mxCell>
        <mxCell id="I50PDst2qrP9DVb1H3ON-81" value="" style="endArrow=diamondThin;endFill=0;endSize=24;html=1;rounded=0;fontSize=12;curved=1;exitX=1.012;exitY=1.029;exitDx=0;exitDy=0;entryX=0.023;entryY=0.785;entryDx=0;entryDy=0;exitPerimeter=0;entryPerimeter=0;" edge="1" parent="1" source="0EULkTotXLuiPx0UYuuQ-41" target="0EULkTotXLuiPx0UYuuQ-144">
          <mxGeometry width="160" relative="1" as="geometry">
            <mxPoint x="1078" y="365" as="sourcePoint" />
            <mxPoint x="1171" y="362" as="targetPoint" />
          </mxGeometry>
        </mxCell>
        <mxCell id="I50PDst2qrP9DVb1H3ON-82" value="1" style="edgeLabel;html=1;align=center;verticalAlign=middle;resizable=0;points=[];fontSize=12;" vertex="1" connectable="0" parent="I50PDst2qrP9DVb1H3ON-81">
          <mxGeometry x="-0.7722" y="1" relative="1" as="geometry">
            <mxPoint x="9" y="9" as="offset" />
          </mxGeometry>
        </mxCell>
        <mxCell id="I50PDst2qrP9DVb1H3ON-83" value="" style="endArrow=diamondThin;endFill=0;endSize=24;html=1;rounded=0;fontSize=12;curved=1;exitX=1;exitY=0.5;exitDx=0;exitDy=0;entryX=0;entryY=0;entryDx=0;entryDy=0;" edge="1" parent="1" source="0EULkTotXLuiPx0UYuuQ-43" target="0EULkTotXLuiPx0UYuuQ-137">
          <mxGeometry width="160" relative="1" as="geometry">
            <mxPoint x="1047" y="462" as="sourcePoint" />
            <mxPoint x="1176" y="268" as="targetPoint" />
          </mxGeometry>
        </mxCell>
        <mxCell id="I50PDst2qrP9DVb1H3ON-84" value="1" style="edgeLabel;html=1;align=center;verticalAlign=middle;resizable=0;points=[];fontSize=12;" vertex="1" connectable="0" parent="I50PDst2qrP9DVb1H3ON-83">
          <mxGeometry x="-0.7722" y="1" relative="1" as="geometry">
            <mxPoint y="-34" as="offset" />
          </mxGeometry>
        </mxCell>
        <mxCell id="I50PDst2qrP9DVb1H3ON-85" value="" style="endArrow=diamondThin;endFill=0;endSize=24;html=1;rounded=0;fontSize=12;curved=1;exitX=1.023;exitY=1.077;exitDx=0;exitDy=0;entryX=-0.01;entryY=0.803;entryDx=0;entryDy=0;exitPerimeter=0;entryPerimeter=0;" edge="1" parent="1" source="0EULkTotXLuiPx0UYuuQ-29" target="0EULkTotXLuiPx0UYuuQ-146">
          <mxGeometry width="160" relative="1" as="geometry">
            <mxPoint x="1047" y="462" as="sourcePoint" />
            <mxPoint x="1176" y="268" as="targetPoint" />
          </mxGeometry>
        </mxCell>
        <mxCell id="I50PDst2qrP9DVb1H3ON-86" value="1" style="edgeLabel;html=1;align=center;verticalAlign=middle;resizable=0;points=[];fontSize=12;" vertex="1" connectable="0" parent="I50PDst2qrP9DVb1H3ON-85">
          <mxGeometry x="-0.7722" y="1" relative="1" as="geometry">
            <mxPoint x="9" y="9" as="offset" />
          </mxGeometry>
        </mxCell>
        <mxCell id="I50PDst2qrP9DVb1H3ON-89" value="" style="endArrow=none;html=1;rounded=0;fontSize=12;startSize=8;endSize=8;curved=1;exitX=1.006;exitY=1.09;exitDx=0;exitDy=0;exitPerimeter=0;entryX=0.006;entryY=0.5;entryDx=0;entryDy=0;entryPerimeter=0;" edge="1" parent="1" source="0EULkTotXLuiPx0UYuuQ-45" target="0EULkTotXLuiPx0UYuuQ-30">
          <mxGeometry width="50" height="50" relative="1" as="geometry">
            <mxPoint x="689" y="261" as="sourcePoint" />
            <mxPoint x="885" y="459" as="targetPoint" />
          </mxGeometry>
        </mxCell>
        <mxCell id="I50PDst2qrP9DVb1H3ON-90" value="0...*" style="edgeLabel;html=1;align=center;verticalAlign=middle;resizable=0;points=[];fontSize=12;" vertex="1" connectable="0" parent="I50PDst2qrP9DVb1H3ON-89">
          <mxGeometry x="-0.7356" relative="1" as="geometry">
            <mxPoint x="-4" y="16" as="offset" />
          </mxGeometry>
        </mxCell>
        <mxCell id="I50PDst2qrP9DVb1H3ON-91" value="1" style="edgeLabel;html=1;align=center;verticalAlign=middle;resizable=0;points=[];fontSize=12;" vertex="1" connectable="0" parent="I50PDst2qrP9DVb1H3ON-89">
          <mxGeometry x="0.596" y="-1" relative="1" as="geometry">
            <mxPoint x="29" y="-19" as="offset" />
          </mxGeometry>
        </mxCell>
        <mxCell id="I50PDst2qrP9DVb1H3ON-93" value="" style="endArrow=block;startArrow=none;endFill=0;startFill=0;endSize=8;html=1;verticalAlign=bottom;dashed=1;labelBackgroundColor=none;rounded=0;fontSize=12;curved=1;entryX=0.493;entryY=0.959;entryDx=0;entryDy=0;entryPerimeter=0;exitX=0.469;exitY=0;exitDx=0;exitDy=0;exitPerimeter=0;" edge="1" parent="1" source="0EULkTotXLuiPx0UYuuQ-80" target="0EULkTotXLuiPx0UYuuQ-75">
          <mxGeometry width="160" relative="1" as="geometry">
            <mxPoint x="-278.5" y="210" as="sourcePoint" />
            <mxPoint x="-279.5" y="135" as="targetPoint" />
          </mxGeometry>
        </mxCell>
        <mxCell id="I50PDst2qrP9DVb1H3ON-94" value="" style="endArrow=block;startArrow=none;endFill=0;startFill=0;endSize=8;html=1;verticalAlign=bottom;dashed=1;labelBackgroundColor=none;rounded=0;fontSize=12;curved=1;entryX=-0.007;entryY=0.831;entryDx=0;entryDy=0;entryPerimeter=0;exitX=1;exitY=0.5;exitDx=0;exitDy=0;" edge="1" parent="1" source="0EULkTotXLuiPx0UYuuQ-88" target="0EULkTotXLuiPx0UYuuQ-73">
          <mxGeometry width="160" relative="1" as="geometry">
            <mxPoint x="-274" y="217" as="sourcePoint" />
            <mxPoint x="-270" y="135" as="targetPoint" />
          </mxGeometry>
        </mxCell>
        <mxCell id="I50PDst2qrP9DVb1H3ON-114" value="" style="endArrow=none;html=1;rounded=0;fontSize=12;startSize=8;endSize=8;curved=1;exitX=1.012;exitY=0.632;exitDx=0;exitDy=0;entryX=0.217;entryY=-0.001;entryDx=0;entryDy=0;entryPerimeter=0;exitPerimeter=0;" edge="1" parent="1" source="0EULkTotXLuiPx0UYuuQ-77" target="0EULkTotXLuiPx0UYuuQ-20">
          <mxGeometry width="50" height="50" relative="1" as="geometry">
            <mxPoint x="289" y="93" as="sourcePoint" />
            <mxPoint x="756" y="146" as="targetPoint" />
          </mxGeometry>
        </mxCell>
        <mxCell id="I50PDst2qrP9DVb1H3ON-115" value="1" style="edgeLabel;html=1;align=center;verticalAlign=middle;resizable=0;points=[];fontSize=12;" vertex="1" connectable="0" parent="I50PDst2qrP9DVb1H3ON-114">
          <mxGeometry x="0.596" y="-1" relative="1" as="geometry">
            <mxPoint x="42" y="-7" as="offset" />
          </mxGeometry>
        </mxCell>
        <mxCell id="I50PDst2qrP9DVb1H3ON-116" value="1" style="edgeLabel;html=1;align=center;verticalAlign=middle;resizable=0;points=[];fontSize=12;" vertex="1" connectable="0" parent="I50PDst2qrP9DVb1H3ON-114">
          <mxGeometry x="-0.898" y="-3" relative="1" as="geometry">
            <mxPoint x="-3" y="-17" as="offset" />
          </mxGeometry>
        </mxCell>
        <mxCell id="I50PDst2qrP9DVb1H3ON-117" value="" style="endArrow=none;html=1;rounded=0;fontSize=12;startSize=8;endSize=8;curved=1;entryX=0;entryY=0.5;entryDx=0;entryDy=0;exitX=0.995;exitY=0.049;exitDx=0;exitDy=0;exitPerimeter=0;" edge="1" parent="1" source="0EULkTotXLuiPx0UYuuQ-77" target="0EULkTotXLuiPx0UYuuQ-29">
          <mxGeometry width="50" height="50" relative="1" as="geometry">
            <mxPoint x="476" y="-99" as="sourcePoint" />
            <mxPoint x="648" y="261" as="targetPoint" />
          </mxGeometry>
        </mxCell>
        <mxCell id="I50PDst2qrP9DVb1H3ON-118" value="1" style="edgeLabel;html=1;align=center;verticalAlign=middle;resizable=0;points=[];fontSize=12;" vertex="1" connectable="0" parent="I50PDst2qrP9DVb1H3ON-117">
          <mxGeometry x="0.596" y="-1" relative="1" as="geometry">
            <mxPoint x="91" y="32" as="offset" />
          </mxGeometry>
        </mxCell>
        <mxCell id="I50PDst2qrP9DVb1H3ON-119" value="1" style="edgeLabel;html=1;align=center;verticalAlign=middle;resizable=0;points=[];fontSize=12;" vertex="1" connectable="0" parent="I50PDst2qrP9DVb1H3ON-117">
          <mxGeometry x="-0.898" y="-3" relative="1" as="geometry">
            <mxPoint x="-3" y="-17" as="offset" />
          </mxGeometry>
        </mxCell>
        <mxCell id="I50PDst2qrP9DVb1H3ON-123" value="" style="endArrow=none;html=1;rounded=0;fontSize=12;startSize=8;endSize=8;curved=1;exitX=0.892;exitY=-0.006;exitDx=0;exitDy=0;entryX=0.013;entryY=0.69;entryDx=0;entryDy=0;entryPerimeter=0;exitPerimeter=0;" edge="1" parent="1" source="0EULkTotXLuiPx0UYuuQ-4" target="0EULkTotXLuiPx0UYuuQ-77">
          <mxGeometry width="50" height="50" relative="1" as="geometry">
            <mxPoint x="73" y="100" as="sourcePoint" />
            <mxPoint x="133" y="107" as="targetPoint" />
          </mxGeometry>
        </mxCell>
        <mxCell id="I50PDst2qrP9DVb1H3ON-124" value="1" style="edgeLabel;html=1;align=center;verticalAlign=middle;resizable=0;points=[];fontSize=12;" vertex="1" connectable="0" parent="I50PDst2qrP9DVb1H3ON-123">
          <mxGeometry x="0.596" y="-1" relative="1" as="geometry">
            <mxPoint x="-1" y="-32" as="offset" />
          </mxGeometry>
        </mxCell>
        <mxCell id="I50PDst2qrP9DVb1H3ON-125" value="1" style="edgeLabel;html=1;align=center;verticalAlign=middle;resizable=0;points=[];fontSize=12;" vertex="1" connectable="0" parent="I50PDst2qrP9DVb1H3ON-123">
          <mxGeometry x="-0.898" y="-3" relative="1" as="geometry">
            <mxPoint x="-3" y="-17" as="offset" />
          </mxGeometry>
        </mxCell>
        <mxCell id="I50PDst2qrP9DVb1H3ON-126" value="" style="endArrow=diamondThin;endFill=0;endSize=24;html=1;rounded=0;fontSize=12;curved=1;exitX=0.574;exitY=0.007;exitDx=0;exitDy=0;exitPerimeter=0;entryX=0.01;entryY=0.164;entryDx=0;entryDy=0;entryPerimeter=0;" edge="1" parent="1" source="0EULkTotXLuiPx0UYuuQ-48" target="0EULkTotXLuiPx0UYuuQ-142">
          <mxGeometry width="160" relative="1" as="geometry">
            <mxPoint x="1105" y="532" as="sourcePoint" />
            <mxPoint x="1237" y="420" as="targetPoint" />
          </mxGeometry>
        </mxCell>
        <mxCell id="I50PDst2qrP9DVb1H3ON-127" value="1" style="edgeLabel;html=1;align=center;verticalAlign=middle;resizable=0;points=[];fontSize=12;" vertex="1" connectable="0" parent="I50PDst2qrP9DVb1H3ON-126">
          <mxGeometry x="-0.7722" y="1" relative="1" as="geometry">
            <mxPoint x="9" y="9" as="offset" />
          </mxGeometry>
        </mxCell>
      </root>
    </mxGraphModel>
  </diagram>
</mxfile>
